<?xml version="1.0" encoding="UTF-8"?>
<svg version="1.1" xmlns="http://www.w3.org/2000/svg" width="500" height="500">
<path d="M0 0 C165 0 330 0 500 0 C500 165 500 330 500 500 C335 500 170 500 0 500 C0 335 0 170 0 0 Z " fill="#C5FBFE" transform="translate(0,0)"/>
<path d="M0 0 C2.01021454 -0.00706843 4.02042376 -0.01581731 6.03062439 -0.02610779 C11.46045364 -0.04850734 16.88999011 -0.04568419 22.31984782 -0.03678632 C26.86490984 -0.03165693 31.40991779 -0.03898476 35.95497423 -0.04625839 C46.68259652 -0.06322735 57.41007645 -0.0597217 68.13769531 -0.04296875 C79.17934092 -0.02604764 90.22059117 -0.04188889 101.26219362 -0.07419163 C110.76747293 -0.10093916 120.27262957 -0.10814966 129.77794272 -0.09967655 C135.44397451 -0.09476277 141.10976853 -0.09687905 146.77577019 -0.11746407 C152.10546585 -0.13590251 157.43459546 -0.12976288 162.76426125 -0.10526466 C164.71161496 -0.10028276 166.65901243 -0.10367777 168.60633087 -0.11641312 C186.27963821 -0.22278558 198.71390799 3.28314094 212.14868164 15.55688477 C222.30815507 26.04785733 227.2624692 39.55957625 227.20126343 54.00041199 C227.20579454 54.8026837 227.21032565 55.60495542 227.21499407 56.4315384 C227.22755456 59.09341654 227.22602315 61.75508788 227.22436523 64.41699219 C227.23035577 66.33646912 227.23716252 68.25594364 227.24472046 70.17541504 C227.26233564 75.37195034 227.26707399 80.56841971 227.26835203 85.76498199 C227.26977689 89.01734772 227.27405287 92.26969688 227.27934647 95.52205849 C227.29783294 106.88499637 227.30601894 118.24788742 227.30444336 129.61083984 C227.30324281 140.17575898 227.32433181 150.74047355 227.35593069 161.30534095 C227.38214932 170.39782006 227.39280829 179.4902326 227.39153254 188.58274919 C227.39102449 194.00347839 227.39662049 199.42402573 227.41788864 204.84471703 C227.43736496 209.9477568 227.43733162 215.05044297 227.42285538 220.15349579 C227.42077769 222.01658207 227.42540542 223.87969104 227.43757629 225.74273872 C227.54914568 244.01829686 224.47760515 260.46928378 211.44946289 274.20922852 C204.30877499 280.80660321 196.17983608 284.74616094 186.93383789 287.53344727 C186.39119514 287.71025843 185.84855238 287.88706959 185.2894659 288.06923866 C181.81743993 288.7534487 178.35840195 288.68506692 174.83363342 288.68734741 C174.01042695 288.69172967 173.18722048 288.69611192 172.33906835 288.70062697 C169.57646641 288.71399724 166.81389636 288.72018994 164.05126953 288.72631836 C162.07179623 288.73422094 160.09232436 288.74248999 158.112854 288.75109863 C151.60658136 288.77730833 145.10030232 288.79262873 138.59399414 288.80688477 C136.35185683 288.81224554 134.10971955 288.81762305 131.86758232 288.82301712 C122.53677077 288.84464741 113.20596093 288.86338174 103.87513065 288.87463951 C90.51821771 288.8908621 77.16159643 288.92399733 63.80479342 288.98104036 C54.40586125 289.0198061 45.00700687 289.03928027 35.60799688 289.04456007 C29.9988119 289.04820541 24.38993807 289.06013931 18.78083992 289.09266281 C13.49726919 289.12285878 8.214196 289.12901416 2.93055725 289.11727905 C0.99931414 289.11705926 -0.93195282 289.12528566 -2.86311531 289.14293289 C-18.10925382 289.27458347 -29.60707976 287.04809804 -42.06616211 277.53344727 C-43.30172852 276.61305664 -43.30172852 276.61305664 -44.56225586 275.67407227 C-53.7141031 267.85002813 -60.15298702 255.49002161 -61.25580108 243.46576655 C-61.33016915 241.26719432 -61.34725724 239.0761174 -61.34031677 236.876297 C-61.34555345 236.04150572 -61.35079013 235.20671444 -61.3561855 234.34662646 C-61.37110385 231.56876273 -61.37188884 228.79108452 -61.37255859 226.01318359 C-61.38018561 224.01341443 -61.38861404 222.01364819 -61.39778137 220.0138855 C-61.41968064 214.594232 -61.42851922 209.17463492 -61.43360782 203.75494218 C-61.43725703 200.36439427 -61.44350005 196.97386102 -61.45060921 193.58331871 C-61.47508856 181.74173716 -61.48815217 169.90019931 -61.49169922 158.05859375 C-61.4953325 147.04205004 -61.52521714 136.02578526 -61.5671038 125.00932676 C-61.6018609 115.53387181 -61.6172486 106.05850906 -61.61794525 96.58299083 C-61.61873626 90.93140375 -61.62739392 85.28010097 -61.65594292 79.62858009 C-61.68221613 74.30882453 -61.68427709 68.98958711 -61.66828728 63.66979599 C-61.66648011 61.72565641 -61.6730968 59.78148639 -61.68910599 57.83741188 C-61.82290359 40.52375563 -58.60582625 27.33916118 -46.05444336 14.47094727 C-32.22473295 1.8639028 -18.05365571 -0.06706269 0 0 Z " fill="#18CCD6" transform="translate(167.066162109375,105.466552734375)"/>
<path d="M0 0 C0.76147842 -0.00671722 1.52295685 -0.01343445 2.30751038 -0.02035522 C4.82177274 -0.03933401 7.33576814 -0.04325934 9.85009766 -0.04541016 C11.60120757 -0.05183822 13.35231641 -0.05856659 15.10342407 -0.06558228 C18.77356455 -0.07755476 22.4436109 -0.08126313 26.11376953 -0.08007812 C30.81031511 -0.07987495 35.5062555 -0.10717572 40.2026577 -0.14162254 C43.81955726 -0.16389042 47.43631116 -0.1679157 51.05327225 -0.16685867 C52.78439037 -0.16921485 54.51551249 -0.17803937 56.24656296 -0.19352341 C58.67131337 -0.21318151 61.09475857 -0.2073469 63.51953125 -0.1953125 C64.23038376 -0.20655151 64.94123627 -0.21779053 65.67362976 -0.22937012 C70.69163607 -0.16627531 73.53302153 1.1314907 77.38916016 4.29052734 C80.0875399 8.33809696 80.04613708 11.53758316 79.38916016 16.29052734 C77.72373983 19.68305023 76.58594818 21.65997021 73.22166443 23.43252563 C69.70389128 24.49810404 66.39663357 24.58575475 62.7565918 24.58105469 C62.00472092 24.58777191 61.25285004 24.59448914 60.47819519 24.60140991 C58.00183438 24.62035078 55.52574507 24.62431186 53.04931641 24.62646484 C51.32205597 24.63289466 49.59479662 24.63962315 47.86753845 24.64663696 C44.25045242 24.65859932 40.63346183 24.66231878 37.01635742 24.66113281 C32.38821846 24.66092949 27.76069263 24.68824981 23.13269901 24.72267723 C19.56641341 24.74494405 16.00027553 24.74897045 12.43392754 24.74791336 C10.72792889 24.75026895 9.02192614 24.75909012 7.31599617 24.77457809 C4.92727112 24.79423775 2.53987073 24.7884015 0.15112305 24.77636719 C-0.89877304 24.79322571 -0.89877304 24.79322571 -1.96987915 24.8104248 C-6.94976535 24.74687013 -9.76334771 23.38842354 -13.61083984 20.29052734 C-16.33917354 16.3084218 -16.29357502 11.95310902 -15.61083984 7.29052734 C-11.69279419 0.71380785 -7.23891438 -0.0091777 0 0 Z " fill="#C5FBFE" transform="translate(166.61083984375,160.70947265625)"/>
<path d="M0 0 C0.75172485 -0.00511093 1.50344971 -0.01022186 2.2779541 -0.01548767 C4.75976554 -0.02937268 7.24129889 -0.02842756 9.72314453 -0.02612305 C11.45183414 -0.03001096 13.18052279 -0.03434583 14.90921021 -0.03910828 C18.5322784 -0.04656841 22.15524916 -0.04628099 25.77832031 -0.04101562 C30.41423761 -0.0352253 35.04975483 -0.0521423 39.685606 -0.0753603 C43.25617798 -0.09011565 46.82665406 -0.09096682 50.39725113 -0.08785057 C52.10602739 -0.08836301 53.81480913 -0.09358623 55.52355576 -0.10366249 C57.91700724 -0.11604289 60.30968526 -0.10922578 62.703125 -0.09765625 C63.75537766 -0.10912186 63.75537766 -0.10912186 64.82888794 -0.12081909 C70.26700307 -0.06291639 74.23940881 1.33198308 78.35595703 4.8996582 C80.13786483 8.66146356 80.1172009 12.19562806 79.48095703 16.2746582 C77.8155367 19.66718109 76.67774506 21.64410107 73.3134613 23.41665649 C69.79568816 24.48223489 66.48843044 24.56988561 62.84838867 24.56518555 C62.09651779 24.57190277 61.34464691 24.57862 60.56999207 24.58554077 C58.09363125 24.60448164 55.61754194 24.60844272 53.14111328 24.6105957 C51.41385284 24.61702552 49.68659349 24.62375401 47.95933533 24.63076782 C44.3422493 24.64273018 40.72525871 24.64644964 37.1081543 24.64526367 C32.48001534 24.64506035 27.85248951 24.67238067 23.22449589 24.70680809 C19.65821028 24.72907491 16.09207241 24.73310131 12.52572441 24.73204422 C10.81972576 24.7343998 9.11372302 24.74322098 7.40779305 24.75870895 C5.019068 24.77836861 2.6316676 24.77253236 0.24291992 24.76049805 C-0.80697617 24.77735657 -0.80697617 24.77735657 -1.87808228 24.79455566 C-6.85796848 24.73100099 -9.67155084 23.3725544 -13.51904297 20.2746582 C-16.24737667 16.29255266 -16.20177814 11.93723988 -15.51904297 7.2746582 C-11.62136681 0.73213036 -7.20618601 -0.02530327 0 0 Z " fill="#C5FBFE" transform="translate(166.51904296875,241.725341796875)"/>
<path d="M0 0 C0.74182526 -0.0065712 1.48365051 -0.0131424 2.24795532 -0.01991272 C4.70265812 -0.03962145 7.15729982 -0.05130265 9.61206055 -0.0612793 C10.87096131 -0.06739259 10.87096131 -0.06739259 12.15529442 -0.07362938 C16.59717944 -0.09447941 21.03903367 -0.10878594 25.48095703 -0.11816406 C30.06427956 -0.12922851 34.6471166 -0.16363162 39.23026752 -0.20333576 C42.75879305 -0.2295028 46.28720286 -0.23785594 49.81581688 -0.24144554 C51.50508085 -0.246311 53.19433966 -0.25792391 54.88350868 -0.27648354 C57.25085378 -0.30087856 59.61694222 -0.29990992 61.984375 -0.29296875 C62.67809708 -0.30577881 63.37181915 -0.31858887 64.08656311 -0.33178711 C69.95754624 -0.26924203 73.37211799 2.01711806 77.5612793 5.92700195 C79.25733408 9.31911152 79.32733415 12.51383138 78.6862793 16.17700195 C76.59986687 20.20079734 74.95001768 22.61946421 70.6862793 24.17700195 C68.08359667 24.38217398 65.58662199 24.48100959 62.98364258 24.48339844 C62.21241058 24.49172195 61.44117859 24.50004547 60.64657593 24.50862122 C58.09986303 24.53269456 55.55340637 24.54148984 53.0065918 24.5480957 C51.23306197 24.55706382 49.45953292 24.5661857 47.68600464 24.57545471 C43.96879234 24.59193983 40.25167007 24.59964399 36.53442383 24.60253906 C31.77723075 24.60792349 27.02088655 24.64560764 22.26393318 24.69128323 C18.60070728 24.72106273 14.93768563 24.7282628 11.27434921 24.72926521 C9.52088405 24.73346548 7.76741816 24.74589211 6.01407242 24.76678276 C3.55798601 24.7937179 1.10386503 24.78886685 -1.35229492 24.77636719 C-2.07249817 24.79120148 -2.79270142 24.80603577 -3.534729 24.82131958 C-7.35249019 24.766146 -9.79904288 24.162627 -12.74880981 21.82704163 C-16.4558887 17.99692567 -16.7690503 14.59688808 -16.7355957 9.4699707 C-16.11279058 6.08490952 -14.43147583 4.5038954 -11.91918945 2.27075195 C-8.20292468 -0.26100993 -4.304129 0.01653826 0 0 Z " fill="#C3FBFE" transform="translate(167.313720703125,322.822998046875)"/>
<path d="M0 0 C3.12740787 2.0612461 4.33498308 3.35356975 5.75 6.8125 C6.34487039 11.40150016 5.87509438 14.91220621 3.47436523 18.92138672 C-0.56465145 23.35098083 -6.60430489 25.60822573 -11.9375 28.1875 C-13.25696652 28.84193076 -14.57548682 29.49827264 -15.89306641 30.15649414 C-17.85585683 31.1364793 -19.8192907 32.11481049 -21.78686523 33.0851593 C-25.47232892 34.90509586 -29.10618065 36.78917761 -32.69921875 38.78515625 C-33.46468018 39.20941895 -34.2301416 39.63368164 -35.01879883 40.07080078 C-36.37207815 40.82846151 -37.72010991 41.59561546 -39.0612793 42.37451172 C-43.29788494 44.71246281 -46.44190767 45.47511865 -51.25 44.8125 C-56.61479154 42.17971697 -58.89734197 38.7865203 -61.5625 33.6875 C-61.90861328 33.05457031 -62.25472656 32.42164063 -62.61132812 31.76953125 C-65.6877551 26.12041972 -67.25129016 22.29911889 -66.25 15.8125 C-64.54748281 12.73780477 -62.43773492 10.40636746 -59.25 8.8125 C-53.14602404 8.30383534 -50.14230834 8.75546382 -45.25 12.8125 C-44.92 13.4725 -44.59 14.1325 -44.25 14.8125 C-39.8401012 14.20262038 -36.5574337 12.55408567 -32.6640625 10.43359375 C-31.39086728 9.7528019 -30.11742189 9.07247775 -28.84375 8.39257812 C-26.85710016 7.32293798 -24.87311481 6.24896891 -22.89355469 5.16625977 C-20.96954636 4.11743126 -19.03650765 3.08707091 -17.1015625 2.05859375 C-15.95510254 1.43654053 -14.80864258 0.8144873 -13.62744141 0.17358398 C-8.71049798 -1.80790796 -4.95631736 -1.81096211 0 0 Z " fill="#C3FBFE" transform="translate(343.25,228.1875)"/>
<path d="M0 0 C3.12740787 2.0612461 4.33498308 3.35356975 5.75 6.8125 C6.34487039 11.40150016 5.87509438 14.91220621 3.47436523 18.92138672 C-0.56465145 23.35098083 -6.60430489 25.60822573 -11.9375 28.1875 C-13.25696652 28.84193076 -14.57548682 29.49827264 -15.89306641 30.15649414 C-17.85585683 31.1364793 -19.8192907 32.11481049 -21.78686523 33.0851593 C-25.47232892 34.90509586 -29.10618065 36.78917761 -32.69921875 38.78515625 C-33.46468018 39.20941895 -34.2301416 39.63368164 -35.01879883 40.07080078 C-36.37207815 40.82846151 -37.72010991 41.59561546 -39.0612793 42.37451172 C-43.29788494 44.71246281 -46.44190767 45.47511865 -51.25 44.8125 C-56.61479154 42.17971697 -58.89734197 38.7865203 -61.5625 33.6875 C-61.90861328 33.05457031 -62.25472656 32.42164063 -62.61132812 31.76953125 C-65.6877551 26.12041972 -67.25129016 22.29911889 -66.25 15.8125 C-64.54748281 12.73780477 -62.43773492 10.40636746 -59.25 8.8125 C-53.14602404 8.30383534 -50.14230834 8.75546382 -45.25 12.8125 C-44.92 13.4725 -44.59 14.1325 -44.25 14.8125 C-39.8401012 14.20262038 -36.5574337 12.55408567 -32.6640625 10.43359375 C-31.39086728 9.7528019 -30.11742189 9.07247775 -28.84375 8.39257812 C-26.85710016 7.32293798 -24.87311481 6.24896891 -22.89355469 5.16625977 C-20.96954636 4.11743126 -19.03650765 3.08707091 -17.1015625 2.05859375 C-15.95510254 1.43654053 -14.80864258 0.8144873 -13.62744141 0.17358398 C-8.71049798 -1.80790796 -4.95631736 -1.81096211 0 0 Z " fill="#C3FBFE" transform="translate(343.25,145.1875)"/>
<path d="M0 0 C3.77062132 2.07014504 7.005306 4.12142833 9 8 C9.57811279 13.20301509 8.99938943 16.6883777 6 21 C0.81603323 24.84535245 -5.09615819 27.7059411 -10.83984375 30.609375 C-12.05118736 31.22779266 -12.05118736 31.22779266 -13.28700256 31.85870361 C-15.83544014 33.15922829 -18.38627244 34.45495818 -20.9375 35.75 C-23.51340445 37.05992847 -26.08876112 38.3709034 -28.66297913 39.68414307 C-30.2578215 40.49753303 -31.85368978 41.3089152 -33.45066833 42.11810303 C-36.95179257 43.72641405 -36.95179257 43.72641405 -40 46 C-43.76663558 46.63854981 -47.37312749 46.72342486 -50.90625 45.15234375 C-57.43438319 40.30075386 -61.91791599 31.11796493 -63.578125 23.265625 C-63.75581337 19.48340122 -63.12698501 17.20317602 -61.125 14 C-57.43603925 10.52803694 -54.44250396 10.62184532 -49.53515625 10.62890625 C-46.72875642 11.03970438 -45.72036307 11.64640713 -43.6875 13.5625 C-42.800625 14.366875 -41.91375 15.17125 -41 16 C-36.8898566 15.69818941 -33.60146827 13.97474944 -29.96484375 12.12890625 C-28.82595703 11.55462891 -27.68707031 10.98035156 -26.51367188 10.38867188 C-25.32153992 9.78009415 -24.12948333 9.17136878 -22.9375 8.5625 C-21.74181786 7.95712618 -20.54585672 7.35230306 -19.34960938 6.74804688 C-17.15218702 5.63626321 -14.95600586 4.52202055 -12.76147461 3.40454102 C-11.39454468 2.70929321 -11.39454468 2.70929321 -10 2 C-9.27756104 1.61577881 -8.55512207 1.23155762 -7.81079102 0.83569336 C-5.03096729 -0.44721572 -3.02626574 -0.36315189 0 0 Z " fill="#C3FBFE" transform="translate(340,309)"/>
</svg>
